<?xml version="1.0" encoding="UTF-8" standalone="no"?>
<!-- Created with Inkscape (http://www.inkscape.org/) -->

<svg
   width="210mm"
   height="297mm"
   viewBox="0 0 210 297"
   version="1.1"
   id="svg1"
   inkscape:version="1.4 (86a8ad7, 2024-10-11)"
   sodipodi:docname="BossMonsterFaseTwo.svg"
   xml:space="preserve"
   xmlns:inkscape="http://www.inkscape.org/namespaces/inkscape"
   xmlns:sodipodi="http://sodipodi.sourceforge.net/DTD/sodipodi-0.dtd"
   xmlns:xlink="http://www.w3.org/1999/xlink"
   xmlns="http://www.w3.org/2000/svg"
   xmlns:svg="http://www.w3.org/2000/svg"><sodipodi:namedview
     id="namedview1"
     pagecolor="#ffffff"
     bordercolor="#eeeeee"
     borderopacity="1"
     inkscape:showpageshadow="0"
     inkscape:pageopacity="0"
     inkscape:pagecheckerboard="0"
     inkscape:deskcolor="#505050"
     inkscape:document-units="mm"
     inkscape:zoom="1.0267829"
     inkscape:cx="488.41871"
     inkscape:cy="163.13088"
     inkscape:window-width="1920"
     inkscape:window-height="1017"
     inkscape:window-x="-8"
     inkscape:window-y="142"
     inkscape:window-maximized="1"
     inkscape:current-layer="layer1" /><defs
     id="defs1"><pattern
       inkscape:collect="always"
       xlink:href="#Polkadots-med"
       preserveAspectRatio="xMidYMid"
       id="pattern14"
       patternTransform="scale(0.6)"
       x="0"
       y="0" /><pattern
       inkscape:collect="always"
       xlink:href="#Polkadots-med"
       preserveAspectRatio="xMidYMid"
       id="pattern12"
       patternTransform="scale(0.8)"
       x="0"
       y="0" /><pattern
       patternUnits="userSpaceOnUse"
       width="10"
       height="10"
       patternTransform="translate(0,0) scale(10,10)"
       preserveAspectRatio="xMidYMid"
       id="Polkadots-med"
       inkscape:stockid="Polka dots, medium"
       inkscape:label="Polka dots medium"
       inkscape:collect="always"
       inkscape:isstock="true"><circle
         style="stroke:none"
         cx="2.567"
         cy="0.810"
         r="0.15"
         id="circle406" /><circle
         style="stroke:none"
         cx="3.048"
         cy="2.33"
         r="0.15"
         id="circle408" /><circle
         style="stroke:none"
         cx="4.418"
         cy="2.415"
         r="0.15"
         id="circle410" /><circle
         style="stroke:none"
         cx="1.844"
         cy="3.029"
         r="0.15"
         id="circle412" /><circle
         style="stroke:none"
         cx="6.08"
         cy="1.363"
         r="0.15"
         id="circle414" /><circle
         style="stroke:none"
         cx="5.819"
         cy="4.413"
         r="0.15"
         id="circle416" /><circle
         style="stroke:none"
         cx="4.305"
         cy="4.048"
         r="0.15"
         id="circle418" /><circle
         style="stroke:none"
         cx="5.541"
         cy="3.045"
         r="0.15"
         id="circle420" /><circle
         style="stroke:none"
         cx="4.785"
         cy="5.527"
         r="0.15"
         id="circle422" /><circle
         style="stroke:none"
         cx="2.667"
         cy="5.184"
         r="0.15"
         id="circle424" /><circle
         style="stroke:none"
         cx="7.965"
         cy="1.448"
         r="0.15"
         id="circle426" /><circle
         style="stroke:none"
         cx="7.047"
         cy="5.049"
         r="0.15"
         id="circle428" /><circle
         style="stroke:none"
         cx="4.340"
         cy="0.895"
         r="0.15"
         id="circle430" /><circle
         style="stroke:none"
         cx="7.125"
         cy="0.340"
         r="0.15"
         id="circle432" /><circle
         style="stroke:none"
         cx="9.550"
         cy="1.049"
         r="0.15"
         id="circle434" /><circle
         style="stroke:none"
         cx="7.006"
         cy="2.689"
         r="0.15"
         id="circle436" /><circle
         style="stroke:none"
         cx="8.909"
         cy="2.689"
         r="0.15"
         id="circle438" /><circle
         style="stroke:none"
         cx="9.315"
         cy="4.407"
         r="0.15"
         id="circle440" /><circle
         style="stroke:none"
         cx="7.820"
         cy="3.870"
         r="0.15"
         id="circle442" /><circle
         style="stroke:none"
         cx="8.270"
         cy="5.948"
         r="0.15"
         id="circle444" /><circle
         style="stroke:none"
         cx="7.973"
         cy="7.428"
         r="0.15"
         id="circle446" /><circle
         style="stroke:none"
         cx="9.342"
         cy="8.072"
         r="0.15"
         id="circle448" /><circle
         style="stroke:none"
         cx="8.206"
         cy="9.315"
         r="0.15"
         id="circle450" /><circle
         style="stroke:none"
         cx="9.682"
         cy="9.475"
         r="0.15"
         id="circle452" /><circle
         style="stroke:none"
         cx="9.688"
         cy="6.186"
         r="0.15"
         id="circle454" /><circle
         style="stroke:none"
         cx="3.379"
         cy="6.296"
         r="0.15"
         id="circle456" /><circle
         style="stroke:none"
         cx="2.871"
         cy="8.204"
         r="0.15"
         id="circle458" /><circle
         style="stroke:none"
         cx="4.59"
         cy="8.719"
         r="0.15"
         id="circle460" /><circle
         style="stroke:none"
         cx="3.181"
         cy="9.671"
         r="0.15"
         id="circle462" /><circle
         style="stroke:none"
         cx="5.734"
         cy="7.315"
         r="0.15"
         id="circle464" /><circle
         style="stroke:none"
         cx="6.707"
         cy="6.513"
         r="0.15"
         id="circle466" /><circle
         style="stroke:none"
         cx="5.730"
         cy="9.670"
         r="0.15"
         id="circle468" /><circle
         style="stroke:none"
         cx="6.535"
         cy="8.373"
         r="0.15"
         id="circle470" /><circle
         style="stroke:none"
         cx="4.37"
         cy="7.154"
         r="0.15"
         id="circle472" /><circle
         style="stroke:none"
         cx="0.622"
         cy="7.25"
         r="0.15"
         id="circle474" /><circle
         style="stroke:none"
         cx="0.831"
         cy="5.679"
         r="0.15"
         id="circle476" /><circle
         style="stroke:none"
         cx="1.257"
         cy="8.519"
         r="0.15"
         id="circle478" /><circle
         style="stroke:none"
         cx="1.989"
         cy="6.877"
         r="0.15"
         id="circle480" /><circle
         style="stroke:none"
         cx="0.374"
         cy="3.181"
         r="0.15"
         id="circle482" /><circle
         style="stroke:none"
         cx="1.166"
         cy="1.664"
         r="0.15"
         id="circle484" /><circle
         style="stroke:none"
         cx="1.151"
         cy="0.093"
         r="0.15"
         id="circle486" /><circle
         style="stroke:none"
         cx="1.151"
         cy="10.093"
         r="0.15"
         id="circle488" /><circle
         style="stroke:none"
         cx="1.302"
         cy="4.451"
         r="0.15"
         id="circle490" /><circle
         style="stroke:none"
         cx="3.047"
         cy="3.763"
         r="0.15"
         id="circle492" /></pattern></defs><g
     inkscape:label="Layer 1"
     inkscape:groupmode="layer"
     id="layer1"><g
       id="g14"
       transform="matrix(2.1665179,0,0,2.1665179,-112.6393,-350.23151)"><path
         style="fill:#000000;fill-opacity:1;stroke:#000000;stroke-width:0.668999;stroke-linecap:round;stroke-dasharray:none"
         d="m 87.489645,183.59507 c -2.175642,0.67811 -6.430522,1.74857 -4.281903,5.3296 0,0 0.914264,2.45478 1.913189,3.18865 1.825285,1.34097 5.843194,-0.53862 6.605064,1.59432 0.710983,1.99047 -3.234163,3.02731 -3.826381,5.05629 -0.320099,1.09668 -0.177365,2.36662 0.273312,3.41641 0.547183,1.27459 1.40207,2.92747 2.778681,3.09755 1.454497,0.17971 2.649062,-1.3839 3.644171,-2.45982 1.50514,-1.62738 1.09806,-5.39265 3.27975,-5.78512 2.206182,-0.39687 3.321142,3.02764 5.147402,4.32745 0.89318,0.63571 1.74369,1.87065 2.82423,1.68543 1.26468,-0.21678 1.83838,-1.8383 2.45982,-2.96089 0.61162,-1.10484 1.86168,-2.5328 1.18435,-3.59862 -0.27072,-0.426 -1.0306,-0.35939 -1.50322,-0.18221 -0.38256,0.14342 -0.41245,0.94061 -0.81994,0.91105 -1.09207,-0.0792 -0.96807,-2.04789 -1.82208,-2.73313 -1.40976,-1.13117 -4.74974,-0.17745 -5.05629,-1.95874 -0.462012,-2.68458 4.3247,-3.34918 6.19509,-5.3296 1.06347,-1.12604 2.70642,-2.14537 2.82424,-3.68973 0.0553,-0.72499 -0.5553,-1.37821 -1.0477,-1.91319 -0.69018,-0.74987 -1.5318,-1.69098 -2.55093,-1.68543 -1.86983,0.0102 -3.27813,1.86856 -4.64632,3.1431 -1.709172,1.59218 -2.008082,5.23463 -4.327452,5.51181 -1.90021,0.22709 -2.810864,-2.6719 -4.50966,-3.55307 -1.462732,-0.75872 -3.164265,-1.90244 -4.737423,-1.41211 z"
         id="path11-6"
         sodipodi:nodetypes="sssssssssssssssssssssssss" /><g
         id="g11"
         style="display:inline"><circle
           style="fill:#2b1e87;fill-opacity:1;stroke:#000000;stroke-width:0.669;stroke-linecap:round;stroke-dasharray:none"
           id="path1"
           cx="97.661423"
           cy="191.7153"
           r="12.62641" /><g
           id="g10"
           transform="matrix(0.53097549,0,0,0.53097549,12.748176,89.762706)"><path
             style="fill:#35871e;fill-opacity:1;stroke:#000000;stroke-width:0.668999;stroke-linecap:round;stroke-dasharray:none"
             d="m 166.5269,180.31288 0.25768,1.80377 1.93261,0.51536 0.25769,-0.6442 2.8345,0.3221 0.25768,-1.28841 -1.54609,-0.70862 0.3221,-0.64421 2.06145,-0.25768 -0.9663,-1.48167 -1.48167,0.12884 -0.38653,1.35283 h -0.9663 l -0.32211,1.15957 -1.28841,-1.93261 -0.57978,0.25768 0.45095,1.03073 -2.5124,-1.09515 -0.83747,1.73935 h -1.41725 l -0.12884,-1.86819 1.73935,-0.32211 -0.83747,-1.03072 2.5124,-1.28841 0.32211,-0.90189 0.77304,0.90189 2.64124,-1.61051 -1.22399,-0.0644 v -0.96631 l -1.03072,1.54609 -1.15957,-0.38652 -0.64421,0.19326 -0.6442,-0.25768 2.5124,-2.12588 1.15956,-0.0644 1.67494,-0.3221 1.93261,1.03073 0.70862,-0.57979 c 1.09515,0.3221 9.34097,5.15364 10.56496,18.29541 l -2.31913,-2.25471 c 0,0 0.38652,-1.99704 0.12883,-2.12588 -0.25768,-0.12884 -1.35282,-0.45094 -1.35282,-0.45094 l -0.70863,-1.67493 h -1.15957 l -2.77008,-1.22399 0.83747,1.73935 0.6442,0.0644 0.3221,-0.38652 1.03073,0.77304 -0.25768,1.15957 -2.5124,2.1903 -0.83746,-0.12884 -0.38653,-1.73936 -2.06145,-3.4787 -0.96631,-0.0644 3.34987,6.44204 0.77304,0.12884 0.90189,-0.38652 0.19326,1.03073 -1.28841,2.44798 -1.28841,1.54609 0.0644,4.12291 -1.03073,1.48167 -0.45094,2.38356 -1.67493,1.48167 -0.51537,1.28841 -1.73935,-0.25769 -0.57978,-2.44797 -0.77305,-2.96334 0.96631,-2.57682 -1.48167,-3.41429 0.19326,-1.41725 -1.03073,-0.38652 -0.57978,-0.3221 -1.48167,0.57978 -1.67493,-0.3221 -1.48168,-2.8345 0.25769,-1.67493 v -1.5461 l 0.6442,-1.54609 0.38652,-0.83746 0.45095,-0.12884 1.09514,-1.54609 z"
             id="path2"
             sodipodi:nodetypes="ccccccccccccccccccccccccccccccccccccccccsccccccccccccccccccccccccccccccccccccccccccc" /><path
             style="fill:#35871e;fill-opacity:1;stroke:#000000;stroke-width:0.668999;stroke-linecap:round;stroke-dasharray:none"
             d="m 175.93229,197.3843 0.0644,1.99704 -0.77305,2.12587 -0.77304,0.3221 v -2.06145 l 0.57978,-0.70863 z"
             id="path3" /><path
             style="fill:#35871e;fill-opacity:1;stroke:#000000;stroke-width:0.668999;stroke-linecap:round;stroke-dasharray:none"
             d="m 154.02933,171.74496 1.48167,0.38652 0.25768,0.70862 -0.70862,1.09515 0.77304,0.96631 1.99704,-1.67493 3.54312,-1.28841 0.38652,-1.61051 -3.86522,0.51536 -2.1903,-0.12884 z"
             id="path4" /><path
             style="fill:#35871e;fill-opacity:1;stroke:#000000;stroke-width:0.668999;stroke-linecap:round;stroke-dasharray:none"
             d="m 138.05305,183.79158 c 0.96631,-4.25175 6.05553,-9.1477 7.73046,-10.24285 l 1.03073,0.45094 3.34986,-1.22399 1.73935,-0.25768 0.77305,0.45094 -0.57979,1.28841 h -1.15956 l -1.03073,-0.70862 -1.93262,1.35283 -0.12884,1.61051 1.03073,0.12884 1.03073,-1.73935 1.80377,0.12884 0.19326,-0.3221 1.22399,1.86819 -1.93261,1.22399 -0.19326,1.09515 -1.8682,0.96631 -1.93261,2.31913 -0.25768,1.28841 -4.18733,0.90189 -0.77305,1.86819 1.09515,1.15957 0.90189,-0.70863 0.3221,1.03073 -0.38652,0.51537 0.83746,0.0644 v 1.15956 l 0.90189,1.48167 -0.45094,0.57979 -1.61052,-1.93262 -1.80377,-0.38652 -1.03073,-1.28841 -1.48167,-0.77304 0.3221,-2.06146 z"
             id="path5"
             sodipodi:nodetypes="ccccccccccccccccccccccccccccccccccccc" /><path
             style="fill:#35871e;fill-opacity:1;stroke:#000000;stroke-width:0.668999;stroke-linecap:round;stroke-dasharray:none"
             d="m 151.32367,171.5517 1.48167,-0.83747 0.96631,0.3221 -1.41725,0.83747 z"
             id="path6" /><path
             style="fill:#35871e;fill-opacity:1;stroke:#000000;stroke-width:0.668999;stroke-linecap:round;stroke-dasharray:none"
             d="m 145.33257,185.98188 1.67493,0.19326 0.38652,1.15957 z"
             id="path7" /><path
             style="fill:#35871e;fill-opacity:1;stroke:#000000;stroke-width:0.668999;stroke-linecap:round;stroke-dasharray:none"
             d="m 146.81424,190.62015 1.99703,-0.6442 2.64124,1.67493 1.41725,1.61051 1.80377,0.90189 1.48167,1.28841 0.0644,1.48167 -0.77304,0.90188 0.45094,2.12588 -1.61051,1.80377 -0.83747,2.64124 -1.35283,1.73935 -0.90188,1.99704 0.25768,2.5124 h -1.22399 l -1.41725,-1.28841 -0.12884,-2.64124 -0.77305,-1.93262 0.70863,-3.22102 -2.1903,-2.5124 -0.12884,-2.06145 -1.48167,-2.8345 1.09515,-1.15957 -0.3221,-0.90189 z"
             id="path8" /><path
             style="fill:#f5fff2;fill-opacity:1;stroke:#000000;stroke-width:0.668999;stroke-linecap:round;stroke-dasharray:none"
             d="m 157.25035,215.16435 5.15364,-0.70863 6.18436,-0.77304 -3.54312,1.28841 z"
             id="path9" /><path
             style="fill:#f5fff2;fill-opacity:1;stroke:#000000;stroke-width:0.668999;stroke-linecap:round;stroke-dasharray:none"
             d="m 159.69833,168.52393 6.44204,0.96631 -1.93261,0.96631 z"
             id="path10"
             sodipodi:nodetypes="cccc" /></g></g><path
         style="fill:#3b2b25;fill-opacity:0.87451;stroke:#000000;stroke-width:0.668999;stroke-linecap:round;stroke-dasharray:none"
         d="m 87.551227,183.4385 c -2.175642,0.67811 -6.430522,1.74857 -4.281903,5.3296 0,0 0.914264,2.45478 1.913189,3.18865 1.825285,1.34097 5.843194,-0.53862 6.605064,1.59432 0.710983,1.99047 -3.234163,3.02731 -3.826381,5.05629 -0.320099,1.09668 -0.177365,2.36662 0.273312,3.41641 0.547183,1.27459 1.40207,2.92747 2.778681,3.09755 1.454497,0.17971 2.649062,-1.3839 3.644172,-2.45982 1.505144,-1.62738 1.098059,-5.39265 3.279754,-5.78512 2.206175,-0.39687 3.321135,3.02764 5.147395,4.32745 0.89318,0.63571 1.74369,1.87065 2.82423,1.68543 1.26468,-0.21678 1.83838,-1.8383 2.45982,-2.96089 0.61162,-1.10484 1.86168,-2.5328 1.18435,-3.59862 -0.27072,-0.426 -1.0306,-0.35939 -1.50322,-0.18221 -0.38256,0.14342 -0.41245,0.94061 -0.81994,0.91105 -1.09207,-0.0792 -0.96807,-2.04789 -1.82208,-2.73313 -1.40976,-1.13117 -4.74974,-0.17745 -5.05629,-1.95874 -0.462007,-2.68458 4.3247,-3.34918 6.19509,-5.3296 1.06347,-1.12604 2.70642,-2.14537 2.82424,-3.68973 0.0553,-0.72499 -0.5553,-1.37821 -1.0477,-1.91319 -0.69018,-0.74987 -1.5318,-1.69098 -2.55093,-1.68543 -1.86983,0.0102 -3.27813,1.86856 -4.64632,3.1431 -1.709173,1.59218 -2.008077,5.23463 -4.327449,5.51181 -1.900211,0.22709 -2.810865,-2.6719 -4.509661,-3.55307 -1.462732,-0.75872 -3.164265,-1.90244 -4.737423,-1.41211 z"
         id="path11"
         sodipodi:nodetypes="sssssssssssssssssssssssss" /><path
         style="opacity:0.48;fill:url(#pattern14);fill-opacity:1;stroke:#000000;stroke-width:0.668999;stroke-linecap:round;stroke-dasharray:none"
         d="m 87.453,183.42152 c -2.175642,0.67811 -6.430522,1.74857 -4.281903,5.3296 0,0 0.914264,2.45478 1.913189,3.18865 1.825285,1.34097 5.843194,-0.53862 6.605064,1.59432 0.710983,1.99047 -3.234163,3.02731 -3.826381,5.05629 -0.320099,1.09668 -0.177365,2.36662 0.273312,3.41641 0.547183,1.27459 1.40207,2.92747 2.778681,3.09755 1.454497,0.17971 2.649062,-1.3839 3.644172,-2.45982 1.505144,-1.62738 1.098059,-5.39265 3.279754,-5.78512 2.206172,-0.39687 3.321132,3.02764 5.147392,4.32745 0.89318,0.63571 1.74369,1.87065 2.82423,1.68543 1.26468,-0.21678 1.83838,-1.8383 2.45982,-2.96089 0.61162,-1.10484 1.86168,-2.5328 1.18435,-3.59862 -0.27072,-0.426 -1.0306,-0.35939 -1.50322,-0.18221 -0.38256,0.14342 -0.41245,0.94061 -0.81994,0.91105 -1.09207,-0.0792 -0.96807,-2.04789 -1.82208,-2.73313 -1.40976,-1.13117 -4.74974,-0.17745 -5.05629,-1.95874 -0.462004,-2.68458 4.3247,-3.34918 6.19509,-5.3296 1.06347,-1.12604 2.70642,-2.14537 2.82424,-3.68973 0.0553,-0.72499 -0.5553,-1.37821 -1.0477,-1.91319 -0.69018,-0.74987 -1.5318,-1.69098 -2.55093,-1.68543 -1.86983,0.0102 -3.27813,1.86856 -4.64632,3.1431 -1.70917,1.59218 -2.008074,5.23463 -4.327446,5.51181 -1.900211,0.22709 -2.810865,-2.6719 -4.509661,-3.55307 -1.462732,-0.75872 -3.164265,-1.90244 -4.737423,-1.41211 z"
         id="path11-2"
         sodipodi:nodetypes="sssssssssssssssssssssssss" /><path
         id="path12"
         style="opacity:1;fill:#60534d;fill-opacity:1;stroke:#000000;stroke-width:0.668999;stroke-linecap:round"
         d="M 21.857131,199.03313 A 17.698322,21.477455 82.444232 0 0 7.3464598,196.59687 17.698322,21.477455 82.444232 0 0 -11.6173,216.9658 17.698322,21.477455 82.444232 0 0 12.000738,231.68623 17.698322,21.477455 82.444232 0 0 30.964285,211.31777 17.698322,21.477455 82.444232 0 0 21.857131,199.03313 Z m -3.940433,0.98234 a 15.235439,18.488672 90 0 1 10.807978,13.85842 15.235439,18.488672 90 0 1 -18.488695,15.23573 15.235439,18.488672 90 0 1 -18.4885964,-15.23586 15.235439,18.488672 90 0 1 18.4889544,-15.23505 15.235439,18.488672 90 0 1 7.680359,1.37676 z"
         transform="rotate(-24.221949)" /><path
         id="path12-0"
         style="opacity:0.48;fill:url(#pattern12);fill-opacity:1;stroke:#000000;stroke-width:0.668999;stroke-linecap:round"
         d="m 101.49247,172.52649 a 17.698322,21.477455 58.222283 0 0 -14.232724,3.73155 17.698322,21.477455 58.222283 0 0 -8.937437,26.35602 17.698322,21.477455 58.222283 0 0 27.578161,3.73466 17.698322,21.477455 58.222283 0 0 8.93744,-26.3555 17.698322,21.477455 58.222283 0 0 -13.34544,-7.46673 z m -3.1905,2.51251 a 15.235439,18.488672 65.778051 0 1 15.5422,8.20415 15.235439,18.488672 65.778051 0 1 -10.61021,21.47983 15.235439,18.488672 65.778051 0 1 -23.111762,-6.30918 15.235439,18.488672 65.778051 0 1 10.610722,-21.47931 15.235439,18.488672 65.778051 0 1 7.56905,-1.89549 z" /></g><g
       id="g19"
       transform="matrix(2.1665179,0,0,2.1665179,-112.6393,-350.23151)"><circle
         style="opacity:1;fill:#b7b8a9;fill-opacity:1;stroke:#000000;stroke-width:0.668999;stroke-linecap:round;stroke-dasharray:none"
         id="path14"
         cx="132.01012"
         cy="209.99541"
         r="8.8371172" /><ellipse
         style="opacity:1;fill:#a2a390;fill-opacity:1;stroke:#000000;stroke-width:0.668999;stroke-linecap:round;stroke-dasharray:none"
         id="path15"
         cx="125.83781"
         cy="209.01602"
         rx="1.8904141"
         ry="2.0270705" /><ellipse
         style="opacity:1;fill:#a2a390;fill-opacity:1;stroke:#000000;stroke-width:0.668999;stroke-linecap:round;stroke-dasharray:none"
         id="path16"
         cx="131.55461"
         cy="203.84586"
         rx="2.1409507"
         ry="1.5943252" /><ellipse
         style="opacity:1;fill:#a2a390;fill-opacity:1;stroke:#000000;stroke-width:0.668999;stroke-linecap:round;stroke-dasharray:none"
         id="path17"
         cx="35.495579"
         cy="252.41148"
         rx="1.7993097"
         ry="1.4121165"
         transform="rotate(-24.022313)" /><ellipse
         style="fill:#a2a390;fill-opacity:1;stroke:#000000;stroke-width:0.467236;stroke-linecap:round;stroke-dasharray:none"
         id="path15-7"
         cx="164.00516"
         cy="-187.36639"
         rx="1.3047839"
         ry="1.4325488"
         transform="matrix(-0.26967128,0.96295244,-0.96660948,-0.25625401,0,0)" /><ellipse
         style="fill:#a2a390;fill-opacity:1;stroke:#000000;stroke-width:0.550459;stroke-linecap:round;stroke-dasharray:none"
         id="path16-7"
         cx="167.54385"
         cy="-189.08324"
         rx="1.7615963"
         ry="1.3118272"
         transform="rotate(105.2416)" /><ellipse
         style="fill:#a2a390;fill-opacity:1;stroke:#000000;stroke-width:0.550459;stroke-linecap:round;stroke-dasharray:none"
         id="path17-7"
         cx="246.95224"
         cy="42.949585"
         rx="1.4804906"
         ry="1.161904"
         transform="rotate(49.375524)" /></g><g
       id="g23"
       transform="matrix(2.1665179,0,0,2.1665179,-112.6393,-350.23151)"><path
         id="path22"
         style="opacity:1;fill:#d1bc11;stroke:#000000;stroke-width:0.668999;stroke-linecap:round"
         d="m 61.743236,174.69122 c 0.833854,0.24676 1.015422,0.16469 2.343849,0.94316 0.423803,-0.30097 1.595461,-0.86957 2.298065,-1.14691 -0.01996,-0.94647 -0.05841,-1.68704 0.157812,-2.4712 -0.140077,-0.1097 -1.276255,-1.03425 -1.582127,-1.63104 -0.298087,0.0995 -1.628875,0.20024 -2.329943,0.0466 -0.285656,0.58826 -0.648224,1.07089 -1.421087,1.66867 0.280894,0.48981 0.571998,1.69468 0.533431,2.59072 z"
         sodipodi:nodetypes="cccccccc" /><circle
         style="opacity:1;fill:#d1bc11;fill-opacity:1;stroke:#000000;stroke-width:0.668999;stroke-linecap:round;stroke-dasharray:none"
         id="path18"
         cx="64.000771"
         cy="172.87039"
         r="1.2299079" /></g></g></svg>
