<?xml version="1.0" encoding="UTF-8" standalone="no"?>
<!-- Created with Inkscape (http://www.inkscape.org/) -->

<svg
   width="210mm"
   height="297mm"
   viewBox="0 0 210 297"
   version="1.1"
   id="svg1"
   xml:space="preserve"
   inkscape:version="1.4 (86a8ad7, 2024-10-11)"
   sodipodi:docname="Bugs.svg"
   xmlns:inkscape="http://www.inkscape.org/namespaces/inkscape"
   xmlns:sodipodi="http://sodipodi.sourceforge.net/DTD/sodipodi-0.dtd"
   xmlns:xlink="http://www.w3.org/1999/xlink"
   xmlns="http://www.w3.org/2000/svg"
   xmlns:svg="http://www.w3.org/2000/svg"><sodipodi:namedview
     id="namedview1"
     pagecolor="#ffffff"
     bordercolor="#eeeeee"
     borderopacity="1"
     inkscape:showpageshadow="0"
     inkscape:pageopacity="0"
     inkscape:pagecheckerboard="0"
     inkscape:deskcolor="#505050"
     inkscape:document-units="mm"
     inkscape:zoom="1.4142136"
     inkscape:cx="414.71813"
     inkscape:cy="230.16326"
     inkscape:window-width="1920"
     inkscape:window-height="1017"
     inkscape:window-x="-8"
     inkscape:window-y="142"
     inkscape:window-maximized="1"
     inkscape:current-layer="layer1" /><defs
     id="defs1"><pattern
       inkscape:collect="always"
       xlink:href="#DiamondPlate"
       preserveAspectRatio="xMidYMid"
       id="pattern18"
       patternTransform="matrix(0.00707107,0.00707107,-0.00707107,0.00707107,0,0)"
       x="0"
       y="0" /><pattern
       patternUnits="userSpaceOnUse"
       width="83"
       height="84"
       preserveAspectRatio="xMidYMid"
       id="DiamondPlate"
       inkscape:stockid="Diamond Plate"
       style="fill:#5a3a0e"
       patternTransform="matrix(0.35355339,0.35355339,-0.35355339,0.35355339,0,0)"
       x="0"
       y="0"
       inkscape:label="Diamondplate"
       inkscape:collect="always"
       inkscape:isstock="true"><path
         id="rect22"
         style="fill-opacity:1;stroke:none"
         d="m 29.441406,0 c -0.485427,1.590892 -0.802734,3.4057 -0.802734,5.466797 0,5.423014 2.298575,9.285029 3.939453,11.560547 1.640878,-2.275518 3.939453,-6.137533 3.939453,-11.560547 0,-2.061091 -0.315357,-3.875908 -0.800781,-5.466797 z m 42,0 c -0.485427,1.590892 -0.802734,3.4057 -0.802734,5.466797 0,5.423014 2.298575,9.285029 3.939453,11.560547 1.640878,-2.275518 3.939453,-6.137533 3.939453,-11.560547 C 78.517578,3.405706 78.202221,1.590889 77.716797,0 Z M 11.578125,1.527344 c -5.423017,0 -9.283074,2.29858 -11.558594,3.939453 2.27552,1.640874 6.135577,3.939453 11.558594,3.939453 5.451291,0 9.197845,-2.20152 11.560547,-3.939453 C 20.77597,3.728865 17.029416,1.527344 11.578125,1.527344 Z m 42,0 c -5.423019,0 -9.283075,2.29858 -11.558594,3.939453 2.275519,1.640874 6.135575,3.939453 11.558594,3.939453 5.451291,0 9.197845,-2.20152 11.560547,-3.939453 C 62.77597,3.728865 59.029416,1.527344 53.578125,1.527344 Z m -42,13.378906 C 9.840198,17.268958 7.638672,21.0155 7.638672,26.4668 c 0,5.42301 2.298575,9.28503 3.939453,11.56054 1.640878,-2.27551 3.939453,-6.13753 3.939453,-11.56054 0,-5.4513 -2.201525,-9.197842 -3.939453,-11.56055 z m 42,0 c -1.737928,2.362708 -3.939453,6.10925 -3.939453,11.56055 0,5.42301 2.298575,9.28503 3.939453,11.56054 1.640878,-2.27551 3.939453,-6.13753 3.939453,-11.56054 0,-5.4513 -2.201525,-9.197842 -3.939453,-11.56055 z m -21,7.62109 c -5.423019,0 -9.283075,2.29858 -11.558594,3.93946 2.275519,1.64087 6.135575,3.93945 11.558594,3.93945 5.451291,0 9.197845,-2.20152 11.560547,-3.93945 -2.362702,-1.73793 -6.109256,-3.93946 -11.560547,-3.93946 z m 41,0 c -5.423015,0 -9.283076,2.29858 -11.558594,3.93946 2.275518,1.64087 6.135579,3.93945 11.558594,3.93945 4.031903,0 7.125505,-1.20476 9.421875,-2.53516 V 25.0625 C 80.70363,23.7321 77.610028,22.52734 73.578125,22.52734 Z M 0,25.0625 v 2.80859 C 0.808414,27.40274 1.523479,26.91931 2.138672,26.4668 1.523479,26.01428 0.808414,25.53085 0,25.0625 Z m 32.578125,10.84375 c -1.737928,2.36271 -3.939453,6.10925 -3.939453,11.56055 0,5.42301 2.298575,9.28503 3.939453,11.56054 1.640878,-2.27551 3.939453,-6.13753 3.939453,-11.56054 0,-5.4513 -2.201525,-9.19784 -3.939453,-11.56055 z m 42,0 c -1.737928,2.36271 -3.939453,6.10925 -3.939453,11.56055 0,5.42301 2.298575,9.28503 3.939453,11.56054 1.640878,-2.27551 3.939453,-6.13753 3.939453,-11.56054 0,-5.4513 -2.201525,-9.19784 -3.939453,-11.56055 z m -63,7.62109 c -5.423018,0 -9.283075,2.29858 -11.558594,3.93946 2.275519,1.64087 6.135576,3.93945 11.558594,3.93945 5.451291,0 9.197845,-2.20152 11.560547,-3.93945 -2.362702,-1.73793 -6.109256,-3.93946 -11.560547,-3.93946 z m 42,0 c -5.423019,0 -9.283075,2.29858 -11.558594,3.93946 2.275519,1.64087 6.135575,3.93945 11.558594,3.93945 5.451291,0 9.197845,-2.20152 11.560547,-3.93945 -2.362702,-1.73793 -6.109256,-3.93946 -11.560547,-3.93946 z m -42,13.37891 C 9.840198,59.26896 7.638672,63.0155 7.638672,68.4668 c 0,5.42301 2.298575,9.28503 3.939453,11.56054 1.640878,-2.27551 3.939453,-6.13753 3.939453,-11.56054 0,-5.4513 -2.201525,-9.19784 -3.939453,-11.56055 z m 42,0 c -1.737928,2.36271 -3.939453,6.10925 -3.939453,11.56055 0,5.42301 2.298575,9.28503 3.939453,11.56054 1.640878,-2.27551 3.939453,-6.13753 3.939453,-11.56054 0,-5.4513 -2.201525,-9.19784 -3.939453,-11.56055 z m -21,7.62109 c -5.423019,0 -9.283075,2.29858 -11.558594,3.93946 2.275519,1.64087 6.135575,3.93945 11.558594,3.93945 5.451291,0 9.197845,-2.20152 11.560547,-3.93945 -2.362702,-1.73793 -6.109256,-3.93946 -11.560547,-3.93946 z m 41,0 c -5.423015,0 -9.283076,2.29858 -11.558594,3.93946 2.275518,1.64087 6.135579,3.93945 11.558594,3.93945 4.031903,0 7.125505,-1.20476 9.421875,-2.53516 V 67.0625 C 80.70363,65.7321 77.610028,64.52734 73.578125,64.52734 Z M 0,67.0625 v 2.80859 C 0.808414,69.40274 1.523479,68.91931 2.138672,68.4668 1.523479,68.01428 0.808414,67.53085 0,67.0625 Z M 32.578125,77.90625 C 31.497295,79.37563 30.239861,81.38322 29.441406,84 h 6.275391 c -0.798455,-2.61679 -2.05784,-4.62436 -3.138672,-6.09375 z m 42,0 C 73.497295,79.37563 72.239861,81.38322 71.441406,84 h 6.275391 c -0.798455,-2.61679 -2.05784,-4.62436 -3.138672,-6.09375 z" /></pattern><pattern
       inkscape:collect="always"
       xlink:href="#DiamondPlate-8"
       preserveAspectRatio="xMidYMid"
       id="pattern18-3"
       patternTransform="matrix(-0.00707034,0.00707107,0.00707034,0.00707107,167.0883,-6.4362444e-4)"
       x="0"
       y="0" /><pattern
       patternUnits="userSpaceOnUse"
       width="83"
       height="84"
       preserveAspectRatio="xMidYMid"
       id="DiamondPlate-8"
       inkscape:stockid="Diamond Plate"
       style="fill:#5a3a0e"
       patternTransform="matrix(0.35355339,0.35355339,-0.35355339,0.35355339,0,0)"
       x="0"
       y="0"
       inkscape:label="Diamondplate"
       inkscape:collect="always"
       inkscape:isstock="true"><path
         id="rect22-9"
         style="fill-opacity:1;stroke:none"
         d="m 29.441406,0 c -0.485427,1.590892 -0.802734,3.4057 -0.802734,5.466797 0,5.423014 2.298575,9.285029 3.939453,11.560547 1.640878,-2.275518 3.939453,-6.137533 3.939453,-11.560547 0,-2.061091 -0.315357,-3.875908 -0.800781,-5.466797 z m 42,0 c -0.485427,1.590892 -0.802734,3.4057 -0.802734,5.466797 0,5.423014 2.298575,9.285029 3.939453,11.560547 1.640878,-2.275518 3.939453,-6.137533 3.939453,-11.560547 C 78.517578,3.405706 78.202221,1.590889 77.716797,0 Z M 11.578125,1.527344 c -5.423017,0 -9.283074,2.29858 -11.558594,3.939453 2.27552,1.640874 6.135577,3.939453 11.558594,3.939453 5.451291,0 9.197845,-2.20152 11.560547,-3.939453 C 20.77597,3.728865 17.029416,1.527344 11.578125,1.527344 Z m 42,0 c -5.423019,0 -9.283075,2.29858 -11.558594,3.939453 2.275519,1.640874 6.135575,3.939453 11.558594,3.939453 5.451291,0 9.197845,-2.20152 11.560547,-3.939453 C 62.77597,3.728865 59.029416,1.527344 53.578125,1.527344 Z m -42,13.378906 C 9.840198,17.268958 7.638672,21.0155 7.638672,26.4668 c 0,5.42301 2.298575,9.28503 3.939453,11.56054 1.640878,-2.27551 3.939453,-6.13753 3.939453,-11.56054 0,-5.4513 -2.201525,-9.197842 -3.939453,-11.56055 z m 42,0 c -1.737928,2.362708 -3.939453,6.10925 -3.939453,11.56055 0,5.42301 2.298575,9.28503 3.939453,11.56054 1.640878,-2.27551 3.939453,-6.13753 3.939453,-11.56054 0,-5.4513 -2.201525,-9.197842 -3.939453,-11.56055 z m -21,7.62109 c -5.423019,0 -9.283075,2.29858 -11.558594,3.93946 2.275519,1.64087 6.135575,3.93945 11.558594,3.93945 5.451291,0 9.197845,-2.20152 11.560547,-3.93945 -2.362702,-1.73793 -6.109256,-3.93946 -11.560547,-3.93946 z m 41,0 c -5.423015,0 -9.283076,2.29858 -11.558594,3.93946 2.275518,1.64087 6.135579,3.93945 11.558594,3.93945 4.031903,0 7.125505,-1.20476 9.421875,-2.53516 V 25.0625 C 80.70363,23.7321 77.610028,22.52734 73.578125,22.52734 Z M 0,25.0625 v 2.80859 C 0.808414,27.40274 1.523479,26.91931 2.138672,26.4668 1.523479,26.01428 0.808414,25.53085 0,25.0625 Z m 32.578125,10.84375 c -1.737928,2.36271 -3.939453,6.10925 -3.939453,11.56055 0,5.42301 2.298575,9.28503 3.939453,11.56054 1.640878,-2.27551 3.939453,-6.13753 3.939453,-11.56054 0,-5.4513 -2.201525,-9.19784 -3.939453,-11.56055 z m 42,0 c -1.737928,2.36271 -3.939453,6.10925 -3.939453,11.56055 0,5.42301 2.298575,9.28503 3.939453,11.56054 1.640878,-2.27551 3.939453,-6.13753 3.939453,-11.56054 0,-5.4513 -2.201525,-9.19784 -3.939453,-11.56055 z m -63,7.62109 c -5.423018,0 -9.283075,2.29858 -11.558594,3.93946 2.275519,1.64087 6.135576,3.93945 11.558594,3.93945 5.451291,0 9.197845,-2.20152 11.560547,-3.93945 -2.362702,-1.73793 -6.109256,-3.93946 -11.560547,-3.93946 z m 42,0 c -5.423019,0 -9.283075,2.29858 -11.558594,3.93946 2.275519,1.64087 6.135575,3.93945 11.558594,3.93945 5.451291,0 9.197845,-2.20152 11.560547,-3.93945 -2.362702,-1.73793 -6.109256,-3.93946 -11.560547,-3.93946 z m -42,13.37891 C 9.840198,59.26896 7.638672,63.0155 7.638672,68.4668 c 0,5.42301 2.298575,9.28503 3.939453,11.56054 1.640878,-2.27551 3.939453,-6.13753 3.939453,-11.56054 0,-5.4513 -2.201525,-9.19784 -3.939453,-11.56055 z m 42,0 c -1.737928,2.36271 -3.939453,6.10925 -3.939453,11.56055 0,5.42301 2.298575,9.28503 3.939453,11.56054 1.640878,-2.27551 3.939453,-6.13753 3.939453,-11.56054 0,-5.4513 -2.201525,-9.19784 -3.939453,-11.56055 z m -21,7.62109 c -5.423019,0 -9.283075,2.29858 -11.558594,3.93946 2.275519,1.64087 6.135575,3.93945 11.558594,3.93945 5.451291,0 9.197845,-2.20152 11.560547,-3.93945 -2.362702,-1.73793 -6.109256,-3.93946 -11.560547,-3.93946 z m 41,0 c -5.423015,0 -9.283076,2.29858 -11.558594,3.93946 2.275518,1.64087 6.135579,3.93945 11.558594,3.93945 4.031903,0 7.125505,-1.20476 9.421875,-2.53516 V 67.0625 C 80.70363,65.7321 77.610028,64.52734 73.578125,64.52734 Z M 0,67.0625 v 2.80859 C 0.808414,69.40274 1.523479,68.91931 2.138672,68.4668 1.523479,68.01428 0.808414,67.53085 0,67.0625 Z M 32.578125,77.90625 C 31.497295,79.37563 30.239861,81.38322 29.441406,84 h 6.275391 c -0.798455,-2.61679 -2.05784,-4.62436 -3.138672,-6.09375 z m 42,0 C 73.497295,79.37563 72.239861,81.38322 71.441406,84 h 6.275391 c -0.798455,-2.61679 -2.05784,-4.62436 -3.138672,-6.09375 z" /></pattern></defs><g
     inkscape:label="Layer 1"
     inkscape:groupmode="layer"
     id="layer1"><g
       id="g2"
       transform="matrix(5.3868102,2.8788468,-2.8788468,5.3868102,-260.11276,-634.13602)"
       inkscape:export-filename="BugLarve.png"
       inkscape:export-xdpi="200"
       inkscape:export-ydpi="200"><ellipse
         style="fill:#c4b9aa;fill-opacity:1;stroke:#000000;stroke-width:0.169;stroke-linecap:round;stroke-dasharray:none;stroke-opacity:1"
         id="path1"
         cx="103.7112"
         cy="71.52858"
         rx="0.6280995"
         ry="0.61199445" /><ellipse
         style="fill:#c4b9aa;fill-opacity:1;stroke:#000000;stroke-width:0.169;stroke-linecap:round;stroke-dasharray:none;stroke-opacity:1"
         id="path1-4"
         cx="104.39707"
         cy="70.702545"
         rx="1.0607098"
         ry="1.0335122" /><ellipse
         style="fill:#c4b9aa;fill-opacity:1;stroke:#000000;stroke-width:0.169;stroke-linecap:round;stroke-dasharray:none;stroke-opacity:1"
         id="path1-7"
         cx="105.65788"
         cy="69.801773"
         rx="1.5529906"
         ry="1.5131704" /><ellipse
         style="fill:#c4b9aa;fill-opacity:1;stroke:#000000;stroke-width:0.169;stroke-linecap:round;stroke-dasharray:none;stroke-opacity:1"
         id="path1-2"
         cx="106.93248"
         cy="69.11348"
         rx="1.5380729"
         ry="1.4986353" /><ellipse
         style="fill:#c4b9aa;fill-opacity:1;stroke:#000000;stroke-width:0.169;stroke-linecap:round;stroke-dasharray:none;stroke-opacity:1"
         id="path1-42"
         cx="108.12654"
         cy="68.763008"
         rx="1.2397209"
         ry="1.2079334" /><ellipse
         style="fill:#d28d7e;fill-opacity:1;stroke:#000000;stroke-width:0.169;stroke-linecap:round;stroke-dasharray:none;stroke-opacity:1"
         id="path1-1"
         cx="127.43505"
         cy="-19.215958"
         rx="0.89022988"
         ry="1.044396"
         transform="rotate(40.711629)" /><path
         style="fill:#d28d7e;fill-opacity:1;stroke:#000000;stroke-width:0.169;stroke-linecap:round;stroke-dasharray:none;stroke-opacity:1"
         d="m 108.87604,68.95703 0.34727,0.03307 -0.0331,-0.363802 0.34727,0.08268 -0.0661,-0.429948 0.28112,0.115755 -0.0331,-0.297656"
         id="path2" /></g><g
       id="g11"
       transform="matrix(6.0706751,0,0,7.7488573,-742.05319,-961.77415)"
       inkscape:export-filename="WorkerBug.png"
       inkscape:export-xdpi="200"
       inkscape:export-ydpi="200"><path
         id="path3"
         style="fill:#623921;fill-opacity:1;stroke:#000000;stroke-width:0.169;stroke-linecap:round;stroke-dasharray:none;stroke-opacity:1"
         d="m 149.27099,131.08654 -0.17828,-0.002 -0.678,-0.46303 0.34727,-0.77721 0.33073,-0.0331 0.17828,0.002 0.33073,0.0331 0.34727,0.77721 z"
         sodipodi:nodetypes="ccccccccc" /><path
         id="path4"
         style="fill:#623921;fill-opacity:1;stroke:#000000;stroke-width:0.169;stroke-linecap:round;stroke-dasharray:none;stroke-opacity:1"
         d="m 149.6513,128.78795 0.49609,0.4961 -0.1819,0.24805 c -0.26122,-3.4e-4 -0.65553,-6.7e-4 -0.78366,-0.001 l -0.78365,-0.001 -0.1819,-0.24805 0.49609,-0.49609 0.46946,0.001 z"
         sodipodi:nodetypes="ccccccccc" /><path
         style="fill:#623921;fill-opacity:1;stroke:#000000;stroke-width:0.169;stroke-linecap:round;stroke-dasharray:none;stroke-opacity:1"
         d="m 148.64622,128.77767 -0.22324,0.23151 c 0,0 -0.81856,-0.29765 -0.42168,-0.81028 0.20671,-0.23152 0.57878,-0.16537 0.57878,-0.16537 0,0 -0.19843,0.16536 -0.12402,0.42168 0.11576,0.19844 0.19016,0.32246 0.19016,0.32246 z"
         id="path5"
         sodipodi:nodetypes="cccccc" /><path
         style="fill:#623921;fill-opacity:1;stroke:#000000;stroke-width:0.168987;stroke-linecap:round;stroke-dasharray:none;stroke-opacity:1"
         d="m 149.7311,128.77802 0.22321,0.23152 c 0,0 0.81842,-0.29766 0.4216,-0.81029 -0.20667,-0.23153 -0.57868,-0.16538 -0.57868,-0.16538 0,0 0.1984,0.16537 0.124,0.42169 -0.11574,0.19844 -0.19013,0.32246 -0.19013,0.32246 z"
         id="path5-2"
         sodipodi:nodetypes="cccccc" /><path
         style="fill:#623921;fill-opacity:1;stroke:#000000;stroke-width:0.169;stroke-linecap:round;stroke-dasharray:none;stroke-opacity:1"
         d="m 148.45486,129.92759 -0.0877,0.15786 -0.70743,-0.39172 0.0935,-0.67819 0.076,0.59634 z"
         id="path8" /><path
         style="fill:#623921;fill-opacity:1;stroke:#000000;stroke-width:0.169;stroke-linecap:round;stroke-dasharray:none;stroke-opacity:1"
         d="m 148.28531,130.31346 -0.10524,0.25725 -0.43849,-0.1637 -0.55542,-0.36833 0.0526,-0.0877 0.55542,0.27479 z"
         id="path9" /><path
         style="fill:#623921;fill-opacity:1;stroke:#000000;stroke-width:0.169;stroke-linecap:round;stroke-dasharray:none;stroke-opacity:1"
         d="m 148.297,130.80457 0.19878,0.15201 -0.48526,0.32741 -0.72496,-0.25725 0.0234,-0.076 0.63727,0.13447 z"
         id="path10"
         sodipodi:nodetypes="ccccccc" /><path
         style="fill:#623921;fill-opacity:1;stroke:#000000;stroke-width:0.169;stroke-linecap:round;stroke-dasharray:none;stroke-opacity:1"
         d="m 148.67702,131.10859 -0.45602,0.5028 -0.61389,0.15786 0.0234,0.0643 0.64311,-0.0585 0.62559,-0.52033 z"
         id="path11"
         sodipodi:nodetypes="ccccccc" /><path
         style="fill:#623921;fill-opacity:1;stroke:#000000;stroke-width:0.169011;stroke-linecap:round;stroke-dasharray:none;stroke-opacity:1"
         d="m 149.94078,129.92759 0.0877,0.15786 0.70752,-0.39172 -0.0935,-0.67819 -0.076,0.59634 z"
         id="path8-4" /><path
         style="fill:#623921;fill-opacity:1;stroke:#000000;stroke-width:0.169011;stroke-linecap:round;stroke-dasharray:none;stroke-opacity:1"
         d="m 150.11036,130.31346 0.10525,0.25725 0.43855,-0.1637 0.5555,-0.36833 -0.0526,-0.0877 -0.55549,0.27479 z"
         id="path9-3" /><path
         style="fill:#623921;fill-opacity:1;stroke:#000000;stroke-width:0.169011;stroke-linecap:round;stroke-dasharray:none;stroke-opacity:1"
         d="m 150.09867,130.80457 -0.19881,0.15201 0.48533,0.32741 0.72505,-0.25725 -0.0234,-0.076 -0.63736,0.13447 z"
         id="path10-1"
         sodipodi:nodetypes="ccccccc" /><path
         style="fill:#623921;fill-opacity:1;stroke:#000000;stroke-width:0.169011;stroke-linecap:round;stroke-dasharray:none;stroke-opacity:1"
         d="m 149.71859,131.10859 0.45609,0.50279 0.61397,0.15786 -0.0234,0.0643 -0.6432,-0.0585 -0.62568,-0.52032 z"
         id="path11-2"
         sodipodi:nodetypes="ccccccc" /></g><g
       id="g18"
       transform="matrix(4.1170365,0,0,4.1170365,-288.38762,-554.21937)"
       inkscape:export-filename="DefenderBug.png"
       inkscape:export-xdpi="200"
       inkscape:export-ydpi="200"><path
         style="fill:#472f28;fill-opacity:1;stroke:#000000;stroke-width:0.169;stroke-linecap:round;stroke-dasharray:none;stroke-opacity:1"
         d="M 82.037369,143.75143 H 80.63177 l 1.490728,-2.58202 -2.557272,2.55727 v 0.58699 h 2.654044 z"
         id="path15" /><path
         id="path12"
         style="fill:#622f21;fill-opacity:1;stroke:#000000;stroke-width:0.169;stroke-linecap:round;stroke-dasharray:none;stroke-opacity:1"
         d="m 81.938151,143.40417 0.826823,2.71198 1.566829,-5.2e-4 0.826823,-2.71198 z"
         sodipodi:nodetypes="ccccc" /><path
         style="fill:#624921;fill-opacity:1;stroke:#000000;stroke-width:0.169;stroke-linecap:round;stroke-dasharray:none;stroke-opacity:1"
         d="m 82.593629,142.28634 v 2.00091 l -1.041797,0.0331 z"
         id="path13-5" /><path
         style="fill:url(#pattern18);fill-opacity:1;stroke:#000000;stroke-width:0.169;stroke-linecap:round;stroke-dasharray:none;stroke-opacity:1"
         d="m 82.599608,142.27969 v 2.00091 l -1.041797,0.0331 z"
         id="path13" /><path
         style="fill:#492a22;fill-opacity:1;stroke:#000000;stroke-width:0.169;stroke-linecap:round;stroke-dasharray:none;stroke-opacity:1"
         d="M 81.723176,144.57825 H 82.7319 v 1.19063 l -0.413411,0.0331 z"
         id="path14" /><path
         id="path16-1-7-7"
         style="fill:#462a22;fill-opacity:1;stroke:#000000;stroke-width:0.0996049;stroke-linecap:round;stroke-dasharray:none;stroke-opacity:1"
         d="m 83.931311,148.33772 -0.384473,0.0646 -0.380855,-0.0641 -0.211357,0.71779 0.225826,0.15658 0.368453,-0.15193 0.367937,0.15141 0.225309,-0.15658 z" /><path
         id="path16-1-7"
         style="fill:#3a1a11;fill-opacity:1;stroke:#000000;stroke-width:0.12999;stroke-linecap:round;stroke-dasharray:none;stroke-opacity:1"
         d="m 84.059469,147.55792 -0.512631,0.0873 -0.509529,-0.0868 -0.272852,0.94567 0.291972,0.20619 0.492476,-0.2067 0.49196,0.20619 0.291455,-0.20671 z" /><path
         id="path16-1"
         style="fill:#462a22;fill-opacity:1;stroke:#000000;stroke-width:0.154989;stroke-linecap:round;stroke-dasharray:none;stroke-opacity:1"
         d="m 84.340072,146.84168 -0.79375,0.0909 -0.7891,-0.0899 -0.397908,0.92242 0.425297,0.20154 0.764811,-0.21498 0.763261,0.21395 0.42478,-0.20103 z" /><path
         id="path16"
         style="fill:#622f21;fill-opacity:1;stroke:#000000;stroke-width:0.169;stroke-linecap:round;stroke-dasharray:none;stroke-opacity:1"
         d="m 84.530241,146.04948 -0.984436,-0.17644 -0.979269,0.17696 -0.479557,0.90951 0.51263,0.19843 0.949813,-0.21807 0.947746,0.21756 0.51263,-0.19844 z"
         sodipodi:nodetypes="ccccccccc" /><path
         style="fill:#472f28;fill-opacity:1;stroke:#000000;stroke-width:0.168991;stroke-linecap:round;stroke-dasharray:none;stroke-opacity:1"
         d="m 85.059458,143.75089 h 1.405453 l -1.490573,-2.58202 2.557006,2.55727 v 0.58699 h -2.653768 z"
         id="path15-4" /><path
         style="fill:#624921;fill-opacity:1;stroke:#000000;stroke-width:0.168991;stroke-linecap:round;stroke-dasharray:none;stroke-opacity:1"
         d="m 84.503256,142.2858 v 2.00091 l 1.041689,0.0331 z"
         id="path13-5-6" /><path
         style="fill:url(#pattern18-3);fill-opacity:1;stroke:#000000;stroke-width:0.168991;stroke-linecap:round;stroke-dasharray:none;stroke-opacity:1"
         d="m 84.497278,142.27915 v 2.00091 l 1.041688,0.0331 z"
         id="path13-0" /><path
         style="fill:#492a22;fill-opacity:1;stroke:#000000;stroke-width:0.168991;stroke-linecap:round;stroke-dasharray:none;stroke-opacity:1"
         d="m 85.373619,144.57771 h -1.00862 v 1.19063 l 0.413368,0.0331 z"
         id="path14-6" /><path
         style="fill:#462a22;fill-opacity:1;stroke:#000000;stroke-width:0.174579;stroke-linecap:round;stroke-dasharray:none;stroke-opacity:1"
         d="m 82.267544,146.08743 -0.244375,0.30718 -0.523661,0.35106 -1.137509,-1.04692 -0.05527,-0.3448 0.709851,0.62064 -0.01164,-0.26957 0.465474,0.7084 0.389838,-0.19438 0.186191,-0.25076 z"
         id="path18"
         sodipodi:nodetypes="ccccccccccc" /><path
         style="fill:#462a22;fill-opacity:1;stroke:#000000;stroke-width:0.178232;stroke-linecap:round;stroke-dasharray:none;stroke-opacity:1"
         d="m 82.194078,147.31993 -0.304958,0.25946 -0.623301,0.27376 -1.176165,-1.06796 -0.02827,-0.32196 0.737186,0.63642 0.0134,-0.24877 0.453783,0.69428 0.457434,-0.14227 0.233993,-0.21305 z"
         id="path18-7"
         sodipodi:nodetypes="ccccccccccc" /><path
         style="fill:#462a22;fill-opacity:1;stroke:#000000;stroke-width:0.178281;stroke-linecap:round;stroke-dasharray:none;stroke-opacity:1"
         d="m 82.49932,148.11439 -0.179386,0.3366 -0.472543,0.45029 -1.545705,-0.61828 -0.15945,-0.28935 0.955202,0.35699 -0.09009,-0.23469 0.712854,0.50002 0.370998,-0.27614 0.13188,-0.27121 z"
         id="path18-9"
         sodipodi:nodetypes="ccccccccccc" /><path
         style="fill:#462a22;fill-opacity:1;stroke:#000000;stroke-width:0.169;stroke-linecap:round;stroke-dasharray:none;stroke-opacity:1"
         d="m 82.720617,148.7986 -0.05408,0.37342 -0.269232,0.55819 -1.488081,-0.21296 -0.219027,-0.2419 0.912307,0.10715 -0.144443,-0.20609 0.748696,0.30771 0.233855,-0.36279 0.03286,-0.29768 z"
         id="path18-98"
         sodipodi:nodetypes="ccccccccccc" /><path
         style="fill:#462a22;fill-opacity:1;stroke:#000000;stroke-width:0.174587;stroke-linecap:round;stroke-dasharray:none;stroke-opacity:1"
         d="m 84.908623,146.1003 0.244398,0.30718 0.523711,0.35106 1.137617,-1.04692 0.05527,-0.3448 -0.709918,0.62064 0.01164,-0.26957 -0.465518,0.7084 -0.389876,-0.19438 -0.186208,-0.25076 z"
         id="path18-6"
         sodipodi:nodetypes="ccccccccccc" /><path
         style="fill:#462a22;fill-opacity:1;stroke:#000000;stroke-width:0.17824;stroke-linecap:round;stroke-dasharray:none;stroke-opacity:1"
         d="m 84.982096,147.33279 0.304987,0.25946 0.62336,0.27376 1.176277,-1.06795 0.02827,-0.32196 -0.737257,0.63641 -0.0134,-0.24876 -0.453826,0.69427 -0.457478,-0.14227 -0.234015,-0.21305 z"
         id="path18-7-3"
         sodipodi:nodetypes="ccccccccccc" /><path
         style="fill:#462a22;fill-opacity:1;stroke:#000000;stroke-width:0.178289;stroke-linecap:round;stroke-dasharray:none;stroke-opacity:1"
         d="m 84.676825,148.12725 0.179403,0.3366 0.472588,0.45029 1.545852,-0.61828 0.159465,-0.28935 -0.955293,0.35699 0.0901,-0.23469 -0.712922,0.50002 -0.371034,-0.27614 -0.131892,-0.27121 z"
         id="path18-9-6"
         sodipodi:nodetypes="ccccccccccc" /><path
         style="fill:#462a22;fill-opacity:1;stroke:#000000;stroke-width:0.169008;stroke-linecap:round;stroke-dasharray:none;stroke-opacity:1"
         d="m 84.455507,148.81146 0.05409,0.37342 0.269257,0.55819 1.488223,-0.21296 0.219048,-0.2419 -0.912394,0.10715 0.144457,-0.20609 -0.748768,0.30771 -0.233877,-0.36279 -0.03286,-0.29768 z"
         id="path18-98-1"
         sodipodi:nodetypes="ccccccccccc" /></g></g></svg>
